<svg width="12" height="12" viewBox="0 0 17 10" fill="none" xmlns="http://www.w3.org/2000/svg">
<path id="Vector" d="M0.833864 0.483822C0.575487 0.5853 0.379368 0.760579 0.251736 0.99736C0.155234 1.18186 0.149008 1.65235 0.239284 1.843C0.326448 2.02443 7.49877 9.11248 7.69488 9.21088C7.81629 9.27238 7.88478 9.28468 8.13381 9.28468C8.38285 9.28468 8.45134 9.27238 8.57274 9.21088C8.76886 9.11248 15.9412 2.02443 16.0283 1.843C16.1186 1.65235 16.1124 1.18186 16.0159 0.99736C15.9194 0.812855 15.7264 0.622201 15.5489 0.533023L15.4026 0.459222L8.16494 0.453072C2.66741 0.449996 0.905463 0.456147 0.833864 0.483822Z" fill="#030303"/>
</svg>
