<svg width="20" height="20" viewBox="0 0 20 20" fill="none" xmlns="http://www.w3.org/2000/svg">
<path d="M8.6418 0.702428C6.98113 0.918099 5.46064 1.55433 4.13067 2.58237C3.71011 2.90947 2.99479 3.614 2.64612 4.04534C1.65403 5.27467 0.996236 6.72686 0.715863 8.30845C0.615216 8.8692 0.575676 10.2171 0.640378 10.8318C0.794942 12.266 1.29458 13.6715 2.071 14.8649C2.42326 15.4041 2.73239 15.7887 3.21406 16.2811C4.72017 17.8268 6.62167 18.7613 8.78558 19.013C9.26725 19.0705 10.4391 19.0597 10.9603 18.9986C13.649 18.6643 16.0501 17.1582 17.549 14.8649C18.3039 13.711 18.7856 12.3846 18.9581 11.0008C19.03 10.4184 19.03 9.28616 18.9581 8.70026C18.6274 6.03312 17.1249 3.62478 14.8603 2.13664C13.6777 1.36023 12.3621 0.87856 10.9603 0.702428C10.4139 0.637726 9.15941 0.637726 8.6418 0.702428ZM10.9962 1.67295C12.8115 1.94613 14.447 2.78725 15.7266 4.10285C16.1651 4.55576 16.3808 4.82535 16.7187 5.33937C18.1134 7.46014 18.4441 10.0877 17.6281 12.5033C17.2183 13.711 16.5785 14.7319 15.6547 15.6593C15.1371 16.1733 14.8496 16.4141 14.3391 16.7484C13.3075 17.4278 12.2291 17.8375 10.9603 18.0317C10.3923 18.1215 9.2313 18.1215 8.65977 18.0352C6.82297 17.7513 5.2917 16.9821 3.98329 15.6772C2.69285 14.3904 1.90925 12.834 1.62528 11.0008C1.53901 10.4292 1.53901 9.26819 1.62887 8.70026C1.95598 6.57948 2.9912 4.76065 4.6339 3.4163C5.31686 2.85555 6.30895 2.31637 7.20399 2.02162C7.89054 1.79157 8.38299 1.69092 9.21692 1.60465C9.50449 1.5759 10.6296 1.61903 10.9962 1.67295Z" fill="#030303"/>
<path d="M12.2743 5.83335C12.0596 5.87915 11.9996 5.92337 11.6063 6.31185L11.2447 6.67034L12.1196 7.54206L12.9929 8.41379L13.334 8.07268C13.7004 7.7063 13.7651 7.62102 13.8235 7.42994C13.852 7.3415 13.8551 7.29413 13.8504 7.14568C13.8378 6.82036 13.7841 6.72877 13.3419 6.28975C12.9929 5.94232 12.9281 5.89652 12.707 5.83967C12.5665 5.80335 12.4212 5.80177 12.2743 5.83335Z" fill="#030303"/>
<path d="M8.51171 9.40561L6.27081 11.6465L6.01971 12.6477C5.87442 13.232 5.76862 13.6805 5.76862 13.7248C5.76862 13.8337 5.82863 13.8937 5.93759 13.8937C5.98181 13.8937 6.43031 13.7879 7.01462 13.6426L8.01584 13.3915L10.2567 11.1506C11.4885 9.91886 12.4961 8.905 12.4961 8.89553C12.4961 8.875 10.7874 7.16629 10.7668 7.16629C10.7574 7.16629 9.7435 8.17383 8.51171 9.40561Z" fill="#030303"/>
</svg>
