<svg width="19" height="19" viewBox="0 0 19 19" fill="none" xmlns="http://www.w3.org/2000/svg">
<g id="Black">
<path id="Vector" d="M8.15858 0.48148C6.49791 0.697152 4.97743 1.33338 3.64745 2.36142C3.22689 2.68852 2.51158 3.39305 2.16291 3.82439C1.17082 5.05372 0.513021 6.50591 0.232647 8.0875C0.132001 8.64825 0.0924608 9.9962 0.157162 10.6109C0.311727 12.0451 0.811367 13.4505 1.58778 14.6439C1.94005 15.1831 2.24918 15.5677 2.73085 16.0602C4.23695 17.6058 6.13846 18.5404 8.30237 18.792C8.78403 18.8495 9.95585 18.8387 10.4771 18.7776C13.1658 18.4433 15.5669 16.9372 17.0658 14.6439C17.8207 13.4901 18.3023 12.1637 18.4749 10.7798C18.5468 10.1975 18.5468 9.06522 18.4749 8.47931C18.1442 5.81217 16.6417 3.40383 14.3771 1.9157C13.1945 1.13928 11.8789 0.657612 10.4771 0.48148C9.93069 0.416779 8.6762 0.416779 8.15858 0.48148ZM10.513 1.452C12.3282 1.72519 13.9637 2.56631 15.2434 3.8819C15.6819 4.33482 15.8976 4.60441 16.2355 5.11842C17.6302 7.2392 17.9609 9.8668 17.1449 12.2823C16.7351 13.4901 16.0953 14.5109 15.1715 15.4383C14.6539 15.9523 14.3663 16.1932 13.8559 16.5275C12.8243 17.2068 11.7459 17.6166 10.4771 17.8107C9.90912 17.9006 8.74809 17.9006 8.17656 17.8143C6.33975 17.5303 4.80848 16.7611 3.50007 15.4563C2.20964 14.1694 1.42603 12.613 1.14206 10.7798C1.05579 10.2083 1.05579 9.04724 1.14566 8.47931C1.47276 6.35854 2.50798 4.5397 4.15068 3.19535C4.83364 2.6346 5.82573 2.09542 6.72077 1.80067C7.40733 1.57062 7.89978 1.46998 8.73371 1.38371C9.02127 1.35495 10.1464 1.39809 10.513 1.452Z" fill="#030303"/>
<path id="Vector_2" d="M9.12274 5.98111C9.05804 6.00987 8.97177 6.08535 8.93223 6.15005C8.86393 6.26508 8.86034 6.32978 8.86034 7.71367V9.16227H7.40815H5.95955L5.83734 9.24494C5.75826 9.29886 5.69715 9.38153 5.66121 9.47859C5.61448 9.61158 5.61448 9.64753 5.66121 9.78053C5.69715 9.87758 5.75826 9.96025 5.83734 10.0142L5.95955 10.0968H7.40815H8.86034V11.549V12.9976L8.94301 13.1198C8.99693 13.1989 9.0796 13.26 9.17666 13.296C9.30965 13.3427 9.3456 13.3427 9.4786 13.296C9.57565 13.26 9.65832 13.1989 9.71224 13.1198L9.79491 12.9976V11.549V10.0968H11.2471H12.6957L12.8179 10.0142C12.897 9.96025 12.9581 9.87758 12.994 9.78053C13.0408 9.64753 13.0408 9.61158 12.994 9.47859C12.9581 9.38153 12.897 9.29886 12.8179 9.24494L12.6957 9.16227H11.2471H9.79491V7.71367C9.79491 6.32618 9.79132 6.26508 9.72302 6.15005C9.64754 6.02784 9.46422 5.92719 9.32044 5.92719C9.27371 5.93079 9.18384 5.95235 9.12274 5.98111Z" fill="#030303"/>
</g>
</svg>
