<svg width="20" height="20" viewBox="0 0 20 24" fill="none" xmlns="http://www.w3.org/2000/svg">
<g id="Group 13">
<g id="Group 12">
<g id="Black">
<path id="Vector" d="M9.19406 0.377166C7.56898 0.711603 6.27117 1.68704 5.57712 3.09725C5.21599 3.83301 5.08057 4.44614 5.08057 5.3101C5.08057 5.76716 5.11442 6.13504 5.17649 6.39144C5.41913 7.37803 5.93825 8.26428 6.66615 8.93873C7.63669 9.83613 8.78215 10.2765 10.1195 10.2765C11.4568 10.2765 12.6022 9.83613 13.5728 8.93873C14.3007 8.26428 14.8198 7.37803 15.0624 6.39144C15.2091 5.81175 15.1922 4.74713 15.0342 4.1117C14.5997 2.35034 13.1721 0.912264 11.3891 0.455202C10.8022 0.304705 9.73576 0.265688 9.19406 0.377166Z" fill="#030303"/>
<path id="Vector_2" d="M8.73704 12.0825C5.75772 12.5563 3.24674 14.3121 1.83043 16.904C1.34516 17.7958 0.927605 19.0667 0.837323 19.9195L0.803467 20.2762L1.30002 20.6441C3.44423 22.2438 5.72386 23.1691 8.33077 23.5091C9.21102 23.6206 11.028 23.6206 11.9082 23.5091C14.5151 23.1691 16.8173 22.2327 18.939 20.6497C19.5089 20.2205 19.4919 20.2651 19.317 19.4011C19.0575 18.1637 18.4819 16.8538 17.754 15.8449C16.5013 14.1226 14.5433 12.7904 12.5007 12.2832C11.3778 11.9989 9.79222 11.9153 8.73704 12.0825Z" fill="#030303"/>
</g>
</g>
</g>
</svg>
